<svg width="373" height="83" viewBox="0 0 373 83" fill="none" xmlns="http://www.w3.org/2000/svg">
<path d="M371 71.7914C351.498 71.094 338 68.1667 320.5 61.3034C303 54.44 297.5 34.1667 274.5 38C258 40.75 257 46.4411 244 64.2551C231 82.069 200 81.5 187.5 64.2551C175 47.0101 159.376 21.0591 139.5 18.1861C124.823 16.0646 103.5 15.3065 87.5 21.5C57.2141 33.2236 60.1965 71.4844 85.5 78.6861C103.525 83.8163 132.461 78.6861 125.823 60.8245C122.095 50.791 111.5 46.3014 96.5 48.5C81.5 50.6986 60.5 67 45.5 67C34.996 67 22.8134 63.5047 18.8628 54.44C14.8286 45.1836 13.2705 32.1861 15 24.1861C16.3628 17.8824 19.5 6.31383 32.5 2.9999C42.3372 1.49975 47.3372 11.4731 47.3372 18.1862C47.3372 30.1761 43 38.1861 35 45.1863C27 52.1865 12.5384 57.4625 2 61.3034" stroke="#E25800" stroke-width="4" stroke-linecap="round"/>
</svg>
