<svg width="373" height="278" viewBox="0 0 373 278" fill="none" xmlns="http://www.w3.org/2000/svg">
<path d="M2.5 34.9286C31.6201 18.013 62.8167 5.57933 97.93 2.63688C122.314 0.593525 153.054 2.016 161.637 29.2259C173.707 67.4891 139.116 83.646 112.591 101.329C92.6258 114.639 69.6564 149.709 98.5964 167.169C110.23 174.187 123.834 174.627 137.047 173.499C171.459 170.562 205.131 160.475 239.271 155.507C270.102 151.02 342.445 140.358 349.626 187.494C351.753 201.459 343.187 214.289 337.897 226.411C333.829 235.733 325.247 253.002 332.3 263.196C335.822 268.287 345.108 271.907 350.292 273.058C356.17 274.363 363.427 275.3 371 275.978" stroke="#E25800" stroke-width="4" stroke-linecap="round"/>
</svg>
