<svg width="370" height="500" viewBox="0 0 370 500" fill="none" xmlns="http://www.w3.org/2000/svg">
<path d="M0 0H370V500H0V0Z" fill="#606C38"/>
<path d="M26 328H344V464H26V328Z" fill="#F6EEE8"/>
<path d="M51.0703 406.879H53.0332V413.119H59.8887V406.879H61.8516V421H59.8887V414.564H53.0332V421H51.0703V406.879ZM64.5672 417.348V413.744C64.5672 412.768 64.9025 411.977 65.573 411.371C66.2436 410.759 67.3211 410.453 68.8055 410.453C70.2247 410.453 71.2697 410.733 71.9402 411.293C72.6108 411.846 72.9461 412.615 72.9461 413.598V416.059H66.4031V417.514C66.4031 418.354 66.5691 418.946 66.9012 419.291C67.2397 419.636 67.8973 419.809 68.8738 419.809C69.4533 419.809 69.909 419.789 70.241 419.75C70.5796 419.704 70.827 419.574 70.9832 419.359C71.146 419.138 71.2534 418.767 71.3055 418.246H72.9266C72.8419 419.06 72.6629 419.682 72.3895 420.111C72.1225 420.535 71.7091 420.824 71.1492 420.98C70.5893 421.137 69.8309 421.215 68.8738 421.215C67.3309 421.215 66.2273 420.893 65.5633 420.248C64.8992 419.604 64.5672 418.637 64.5672 417.348ZM71.1687 414.818V413.402C71.1687 412.777 70.9507 412.364 70.5145 412.162C70.0848 411.96 69.5151 411.859 68.8055 411.859C68.0763 411.859 67.4936 411.986 67.0574 412.24C66.6212 412.494 66.4031 412.94 66.4031 413.578V414.818H71.1687ZM74.0602 421L77.6148 415.717L74.1187 410.648H76.0621L78.6793 414.447L81.2184 410.648H83.152L79.607 415.795L83.2008 421H81.2574L78.5523 417.084L76.0133 421H74.0602ZM84.6273 416.127V414.73H90.0961V416.127H84.6273ZM98.4074 421.215C97.229 421.215 96.2687 421.094 95.5266 420.854C94.7844 420.613 94.2115 420.274 93.8078 419.838C93.4107 419.395 93.134 418.871 92.9777 418.266C92.828 417.66 92.7531 416.99 92.7531 416.254V411.82C92.7531 411.072 92.8247 410.385 92.968 409.76C93.1177 409.128 93.3911 408.581 93.7883 408.119C94.1919 407.657 94.7616 407.299 95.4973 407.045C96.2395 406.791 97.203 406.664 98.3879 406.664C99.8137 406.664 100.907 406.837 101.669 407.182C102.431 407.52 102.955 408.021 103.241 408.686C103.528 409.35 103.671 410.167 103.671 411.137V411.264L101.806 411.43V411.166C101.806 410.313 101.695 409.678 101.474 409.262C101.259 408.845 100.901 408.572 100.4 408.441C99.8983 408.311 99.2277 408.246 98.3879 408.246C97.5611 408.246 96.8775 408.34 96.3371 408.529C95.7967 408.712 95.3931 409.037 95.1262 409.506C94.8592 409.968 94.7258 410.619 94.7258 411.459V416.557C94.7258 417.39 94.8625 418.028 95.1359 418.471C95.4094 418.913 95.8195 419.219 96.3664 419.389C96.9198 419.551 97.6132 419.633 98.4465 419.633C99.2668 419.633 99.9211 419.577 100.409 419.467C100.904 419.356 101.259 419.105 101.474 418.715C101.695 418.318 101.806 417.699 101.806 416.859V416.625H103.671V416.723C103.671 417.432 103.603 418.067 103.466 418.627C103.336 419.18 103.088 419.649 102.724 420.033C102.359 420.417 101.829 420.71 101.132 420.912C100.442 421.114 99.5337 421.215 98.4074 421.215ZM110.127 421.215C109.092 421.215 108.258 421.075 107.627 420.795C107.002 420.508 106.546 420.118 106.26 419.623C105.98 419.128 105.84 418.562 105.84 417.924V413.754C105.84 413.116 105.98 412.549 106.26 412.055C106.546 411.553 107.002 411.163 107.627 410.883C108.258 410.596 109.092 410.453 110.127 410.453C111.156 410.453 111.982 410.596 112.607 410.883C113.239 411.163 113.698 411.553 113.984 412.055C114.271 412.549 114.414 413.116 114.414 413.754V417.924C114.414 418.562 114.271 419.128 113.984 419.623C113.698 420.118 113.239 420.508 112.607 420.795C111.982 421.075 111.156 421.215 110.127 421.215ZM110.127 419.809C110.843 419.809 111.429 419.682 111.885 419.428C112.347 419.167 112.578 418.718 112.578 418.08V413.598C112.578 412.96 112.347 412.51 111.885 412.25C111.429 411.99 110.843 411.859 110.127 411.859C109.398 411.859 108.805 411.99 108.35 412.25C107.9 412.51 107.676 412.96 107.676 413.598V418.08C107.676 418.718 107.9 419.167 108.35 419.428C108.805 419.682 109.398 419.809 110.127 419.809ZM116.915 417.504V406.303H118.751V417.523C118.751 418.083 118.803 418.51 118.907 418.803C119.011 419.089 119.2 419.285 119.473 419.389C119.747 419.486 120.141 419.535 120.655 419.535H120.977L120.762 421.078H120.235C119.48 421.078 118.855 420.99 118.36 420.814C117.872 420.639 117.507 420.294 117.266 419.779C117.032 419.265 116.915 418.507 116.915 417.504ZM126.789 421.215C125.754 421.215 124.92 421.075 124.289 420.795C123.664 420.508 123.208 420.118 122.921 419.623C122.642 419.128 122.502 418.562 122.502 417.924V413.754C122.502 413.116 122.642 412.549 122.921 412.055C123.208 411.553 123.664 411.163 124.289 410.883C124.92 410.596 125.754 410.453 126.789 410.453C127.817 410.453 128.644 410.596 129.269 410.883C129.901 411.163 130.36 411.553 130.646 412.055C130.933 412.549 131.076 413.116 131.076 413.754V417.924C131.076 418.562 130.933 419.128 130.646 419.623C130.36 420.118 129.901 420.508 129.269 420.795C128.644 421.075 127.817 421.215 126.789 421.215ZM126.789 419.809C127.505 419.809 128.091 419.682 128.546 419.428C129.009 419.167 129.24 418.718 129.24 418.08V413.598C129.24 412.96 129.009 412.51 128.546 412.25C128.091 411.99 127.505 411.859 126.789 411.859C126.06 411.859 125.467 411.99 125.011 412.25C124.562 412.51 124.338 412.96 124.338 413.598V418.08C124.338 418.718 124.562 419.167 125.011 419.428C125.467 419.682 126.06 419.809 126.789 419.809ZM133.537 410.648H135.373V412.113C135.523 411.723 135.793 411.41 136.184 411.176C136.581 410.935 137.03 410.762 137.532 410.658C138.033 410.554 138.511 410.502 138.967 410.502L138.909 412.074C138.323 412.074 137.76 412.156 137.219 412.318C136.679 412.475 136.236 412.68 135.891 412.934C135.546 413.188 135.373 413.461 135.373 413.754V421H133.537V410.648ZM141.214 418.637H143.714V421H141.214V418.637ZM141.214 411.615H143.714V413.979H141.214V411.615ZM151.372 421L152.221 416.361H150.454V415.199H152.436L152.993 412.113H150.688V410.951H153.208L153.95 406.879H155.61L154.887 410.951H157.827L158.569 406.879H160.229L159.507 410.951H161.313V412.113H159.302L158.755 415.199H161.079V416.361H158.55L157.729 421H155.991L156.841 416.361H153.93L153.11 421H151.372ZM154.136 415.199H157.055L157.612 412.113H154.682L154.136 415.199ZM167.73 421.215C166.578 421.215 165.663 421.013 164.986 420.609C164.309 420.199 163.824 419.656 163.531 418.979C163.238 418.301 163.091 417.556 163.091 416.742C163.091 416.104 163.17 415.495 163.326 414.916C163.482 414.337 163.71 413.741 164.009 413.129C164.309 412.517 164.673 411.84 165.103 411.098L167.535 406.879H169.488L165.972 412.846C166.265 412.689 166.565 412.582 166.871 412.523C167.183 412.458 167.554 412.426 167.984 412.426C169.442 412.426 170.543 412.82 171.285 413.607C172.033 414.389 172.408 415.401 172.408 416.645C172.408 417.465 172.255 418.223 171.949 418.92C171.649 419.61 171.158 420.167 170.474 420.59C169.791 421.007 168.876 421.215 167.73 421.215ZM167.808 419.633C168.57 419.633 169.149 419.503 169.546 419.242C169.95 418.975 170.224 418.63 170.367 418.207C170.51 417.777 170.582 417.322 170.582 416.84C170.582 416.365 170.507 415.912 170.357 415.482C170.214 415.053 169.94 414.701 169.537 414.428C169.133 414.154 168.544 414.018 167.769 414.018C167.007 414.018 166.418 414.154 166.002 414.428C165.591 414.701 165.308 415.053 165.152 415.482C164.996 415.912 164.918 416.365 164.918 416.84C164.918 417.322 164.996 417.777 165.152 418.207C165.315 418.63 165.604 418.975 166.021 419.242C166.438 419.503 167.033 419.633 167.808 419.633ZM178.864 421.215C177.92 421.215 177.142 421.088 176.53 420.834C175.924 420.58 175.446 420.235 175.094 419.799C174.749 419.363 174.495 418.868 174.332 418.314C174.17 417.761 174.065 417.182 174.02 416.576C173.981 415.971 173.961 415.375 173.961 414.789V413.285C173.961 412.686 173.981 412.077 174.02 411.459C174.065 410.834 174.166 410.238 174.323 409.672C174.485 409.099 174.739 408.588 175.084 408.139C175.436 407.683 175.918 407.325 176.53 407.064C177.142 406.798 177.92 406.664 178.864 406.664C179.808 406.664 180.586 406.798 181.198 407.064C181.81 407.325 182.288 407.683 182.633 408.139C182.985 408.588 183.239 409.099 183.395 409.672C183.558 410.238 183.659 410.834 183.698 411.459C183.743 412.077 183.766 412.686 183.766 413.285V414.789C183.766 415.375 183.743 415.971 183.698 416.576C183.659 417.182 183.558 417.761 183.395 418.314C183.232 418.868 182.975 419.363 182.623 419.799C182.278 420.235 181.8 420.58 181.188 420.834C180.582 421.088 179.808 421.215 178.864 421.215ZM178.864 419.633C179.56 419.633 180.107 419.509 180.504 419.262C180.901 419.008 181.191 418.666 181.373 418.236C181.556 417.8 181.67 417.302 181.715 416.742C181.767 416.176 181.793 415.58 181.793 414.955V413.031C181.793 412.406 181.767 411.807 181.715 411.234C181.67 410.655 181.552 410.144 181.364 409.701C181.181 409.252 180.892 408.897 180.495 408.637C180.104 408.376 179.56 408.246 178.864 408.246C178.174 408.246 177.63 408.376 177.233 408.637C176.836 408.897 176.543 409.252 176.354 409.701C176.172 410.144 176.054 410.655 176.002 411.234C175.957 411.807 175.934 412.406 175.934 413.031V414.955C175.934 415.58 175.957 416.176 176.002 416.742C176.054 417.302 176.172 417.8 176.354 418.236C176.536 418.666 176.826 419.008 177.223 419.262C177.62 419.509 178.167 419.633 178.864 419.633ZM190.544 421.215C189.392 421.215 188.477 421.013 187.8 420.609C187.123 420.199 186.638 419.656 186.345 418.979C186.052 418.301 185.905 417.556 185.905 416.742C185.905 416.104 185.984 415.495 186.14 414.916C186.296 414.337 186.524 413.741 186.823 413.129C187.123 412.517 187.488 411.84 187.917 411.098L190.349 406.879H192.302L188.786 412.846C189.079 412.689 189.379 412.582 189.685 412.523C189.997 412.458 190.368 412.426 190.798 412.426C192.256 412.426 193.357 412.82 194.099 413.607C194.848 414.389 195.222 415.401 195.222 416.645C195.222 417.465 195.069 418.223 194.763 418.92C194.463 419.61 193.972 420.167 193.288 420.59C192.605 421.007 191.69 421.215 190.544 421.215ZM190.622 419.633C191.384 419.633 191.963 419.503 192.361 419.242C192.764 418.975 193.038 418.63 193.181 418.207C193.324 417.777 193.396 417.322 193.396 416.84C193.396 416.365 193.321 415.912 193.171 415.482C193.028 415.053 192.754 414.701 192.351 414.428C191.947 414.154 191.358 414.018 190.583 414.018C189.821 414.018 189.232 414.154 188.816 414.428C188.405 414.701 188.122 415.053 187.966 415.482C187.81 415.912 187.732 416.365 187.732 416.84C187.732 417.322 187.81 417.777 187.966 418.207C188.129 418.63 188.418 418.975 188.835 419.242C189.252 419.503 189.848 419.633 190.622 419.633ZM203.006 421.215C201.827 421.215 200.867 421.094 200.125 420.854C199.383 420.613 198.81 420.274 198.406 419.838C198.009 419.395 197.732 418.871 197.576 418.266C197.426 417.66 197.352 416.99 197.352 416.254V411.82C197.352 411.072 197.423 410.385 197.566 409.76C197.716 409.128 197.99 408.581 198.387 408.119C198.79 407.657 199.36 407.299 200.096 407.045C200.838 406.791 201.801 406.664 202.986 406.664C204.412 406.664 205.506 406.837 206.268 407.182C207.029 407.52 207.553 408.021 207.84 408.686C208.126 409.35 208.27 410.167 208.27 411.137V411.264L206.404 411.43V411.166C206.404 410.313 206.294 409.678 206.072 409.262C205.857 408.845 205.499 408.572 204.998 408.441C204.497 408.311 203.826 408.246 202.986 408.246C202.16 408.246 201.476 408.34 200.936 408.529C200.395 408.712 199.992 409.037 199.725 409.506C199.458 409.968 199.324 410.619 199.324 411.459V416.557C199.324 417.39 199.461 418.028 199.734 418.471C200.008 418.913 200.418 419.219 200.965 419.389C201.518 419.551 202.212 419.633 203.045 419.633C203.865 419.633 204.52 419.577 205.008 419.467C205.503 419.356 205.857 419.105 206.072 418.715C206.294 418.318 206.404 417.699 206.404 416.859V416.625H208.27V416.723C208.27 417.432 208.201 418.067 208.064 418.627C207.934 419.18 207.687 419.649 207.322 420.033C206.958 420.417 206.427 420.71 205.73 420.912C205.04 421.114 204.132 421.215 203.006 421.215ZM215.624 421.215C214.576 421.215 213.736 421.078 213.104 420.805C212.473 420.525 211.994 420.062 211.669 419.418C211.35 418.773 211.135 417.898 211.024 416.791H212.899C212.951 417.579 213.075 418.178 213.27 418.588C213.472 418.992 213.772 419.268 214.169 419.418C214.566 419.561 215.087 419.633 215.731 419.633C216.578 419.633 217.186 419.418 217.557 418.988C217.935 418.559 218.124 417.93 218.124 417.104C218.124 416.374 218.042 415.805 217.88 415.395C217.723 414.978 217.401 414.685 216.913 414.516C216.431 414.34 215.702 414.252 214.725 414.252V412.797C215.481 412.797 216.07 412.748 216.493 412.65C216.923 412.546 217.235 412.393 217.43 412.191C217.626 411.983 217.746 411.729 217.792 411.43C217.844 411.124 217.87 410.772 217.87 410.375C217.87 409.711 217.701 409.19 217.362 408.812C217.024 408.435 216.434 408.246 215.595 408.246C215.015 408.246 214.533 408.308 214.149 408.432C213.765 408.549 213.475 408.803 213.28 409.193C213.091 409.584 212.997 410.183 212.997 410.99H211.122C211.122 409.792 211.317 408.884 211.708 408.266C212.105 407.641 212.642 407.217 213.319 406.996C213.996 406.775 214.751 406.664 215.585 406.664C216.802 406.664 217.792 406.957 218.554 407.543C219.322 408.129 219.706 409.063 219.706 410.346C219.706 411.277 219.53 412.003 219.179 412.523C218.833 413.044 218.248 413.37 217.421 413.5C218.228 413.663 218.856 414.008 219.305 414.535C219.761 415.056 219.989 415.915 219.989 417.113C219.989 418.461 219.608 419.483 218.846 420.18C218.085 420.87 217.011 421.215 215.624 421.215ZM226.484 421.215C225.312 421.215 224.375 421.042 223.671 420.697C222.968 420.346 222.461 419.874 222.148 419.281C221.842 418.689 221.689 418.025 221.689 417.289C221.689 416.436 221.949 415.694 222.47 415.062C222.991 414.424 223.688 413.917 224.56 413.539C224.098 413.305 223.668 413.038 223.271 412.738C222.88 412.439 222.565 412.081 222.324 411.664C222.083 411.241 221.962 410.74 221.962 410.16C221.962 409.555 222.112 408.988 222.412 408.461C222.718 407.927 223.203 407.494 223.867 407.162C224.531 406.83 225.403 406.664 226.484 406.664C227.656 406.664 228.574 406.833 229.238 407.172C229.902 407.51 230.367 407.943 230.634 408.471C230.908 408.992 231.045 409.532 231.045 410.092C231.045 410.86 230.81 411.518 230.341 412.064C229.873 412.611 229.209 413.07 228.349 413.441C228.883 413.702 229.375 414.005 229.824 414.35C230.273 414.688 230.634 415.095 230.908 415.57C231.181 416.046 231.318 416.615 231.318 417.279C231.318 418.008 231.158 418.673 230.839 419.271C230.527 419.864 230.016 420.336 229.306 420.688C228.597 421.039 227.656 421.215 226.484 421.215ZM223.789 410.111C223.789 410.515 223.916 410.87 224.17 411.176C224.423 411.475 224.762 411.745 225.185 411.986C225.608 412.227 226.077 412.458 226.591 412.68C227.021 412.523 227.434 412.325 227.832 412.084C228.235 411.837 228.567 411.55 228.828 411.225C229.088 410.899 229.218 410.544 229.218 410.16C229.218 409.854 229.16 409.555 229.043 409.262C228.932 408.969 228.688 408.728 228.31 408.539C227.939 408.344 227.356 408.246 226.562 408.246C225.859 408.246 225.306 408.337 224.902 408.52C224.498 408.695 224.212 408.926 224.043 409.213C223.873 409.493 223.789 409.792 223.789 410.111ZM226.562 419.633C227.356 419.633 227.959 419.529 228.369 419.32C228.785 419.112 229.069 418.826 229.218 418.461C229.375 418.096 229.453 417.686 229.453 417.23C229.453 416.736 229.316 416.312 229.043 415.961C228.769 415.609 228.405 415.303 227.949 415.043C227.5 414.783 227.002 414.532 226.455 414.291C225.511 414.643 224.791 415.056 224.296 415.531C223.802 416.007 223.554 416.573 223.554 417.23C223.554 417.686 223.639 418.096 223.808 418.461C223.977 418.826 224.28 419.112 224.716 419.32C225.153 419.529 225.768 419.633 226.562 419.633Z" fill="black"/>
<path d="M61.7188 391.406C59.6458 391.406 57.9427 391.193 56.6094 390.766C55.276 390.339 54.2396 389.75 53.5 389C52.7604 388.25 52.2396 387.375 51.9375 386.375C51.6458 385.375 51.5 384.307 51.5 383.172V375.953C51.5 374.786 51.6458 373.698 51.9375 372.688C52.2292 371.667 52.7448 370.771 53.4844 370C54.224 369.229 55.2604 368.63 56.5938 368.203C57.9271 367.766 59.6354 367.547 61.7188 367.547C63.7083 367.547 65.3438 367.776 66.625 368.234C67.9167 368.693 68.9219 369.323 69.6406 370.125C70.3698 370.917 70.875 371.833 71.1562 372.875C71.4479 373.917 71.5938 375.021 71.5938 376.188V382.922C71.5938 384.057 71.4479 385.135 71.1562 386.156C70.8646 387.167 70.3542 388.068 69.625 388.859C68.9062 389.651 67.9062 390.276 66.625 390.734C65.3438 391.182 63.7083 391.406 61.7188 391.406ZM61.7188 387.766C63.4688 387.766 64.776 387.479 65.6406 386.906C66.5052 386.333 66.9375 385.26 66.9375 383.688V375.328C66.9375 373.776 66.5 372.698 65.625 372.094C64.7604 371.49 63.4583 371.188 61.7188 371.188C60 371.188 58.6406 371.484 57.6406 372.078C56.651 372.661 56.1562 373.745 56.1562 375.328V383.688C56.1562 385.271 56.651 386.349 57.6406 386.922C58.6302 387.484 59.9896 387.766 61.7188 387.766ZM75.3762 385.484V367.328H79.6262V385.422C79.6262 386.339 79.8398 387.005 80.2669 387.422C80.7044 387.828 81.4908 388.031 82.6262 388.031H83.1575L82.8294 391.188H81.0481C79.1835 391.188 77.7721 390.766 76.8137 389.922C75.8554 389.068 75.3762 387.589 75.3762 385.484ZM84.5337 374.219H88.7681V391H84.5337V374.219ZM84.5025 367.328H88.7837V371.469H84.5025V367.328ZM89.9725 374.219H94.2069L98.1912 386.844L102.129 374.219H106.144L100.457 391H95.9412L89.9725 374.219ZM107.349 385.75V379.203C107.349 377.495 107.995 376.177 109.286 375.25C110.588 374.323 112.328 373.859 114.505 373.859C117.088 373.859 118.922 374.354 120.005 375.344C121.099 376.333 121.646 377.672 121.646 379.359V383.422H111.599V386.156C111.599 387.146 111.854 387.771 112.364 388.031C112.875 388.281 113.635 388.406 114.646 388.406C115.854 388.406 116.661 388.24 117.068 387.906C117.484 387.562 117.693 386.875 117.693 385.844H121.63C121.63 387.917 121.047 389.354 119.88 390.156C118.713 390.958 116.943 391.359 114.568 391.359C113.203 391.359 111.974 391.193 110.88 390.859C109.786 390.516 108.922 389.938 108.286 389.125C107.661 388.312 107.349 387.188 107.349 385.75ZM117.63 380.828V378.859C117.63 378.234 117.495 377.781 117.224 377.5C116.963 377.208 116.604 377.026 116.146 376.953C115.698 376.87 115.187 376.828 114.614 376.828C113.76 376.828 113.041 376.958 112.458 377.219C111.885 377.469 111.599 378.042 111.599 378.938V380.828H117.63ZM141.586 391.406C139.534 391.406 137.841 391.208 136.507 390.812C135.185 390.406 134.148 389.844 133.398 389.125C132.659 388.406 132.138 387.562 131.836 386.594C131.534 385.625 131.382 384.573 131.382 383.438V375.734C131.382 374.568 131.528 373.49 131.82 372.5C132.122 371.5 132.643 370.63 133.382 369.891C134.132 369.151 135.169 368.578 136.492 368.172C137.825 367.755 139.523 367.547 141.586 367.547C143.586 367.547 145.205 367.74 146.445 368.125C147.695 368.51 148.648 369.052 149.304 369.75C149.971 370.448 150.424 371.266 150.664 372.203C150.914 373.141 151.039 374.161 151.039 375.266V375.625L146.476 375.969V375.047C146.476 373.495 146.096 372.464 145.336 371.953C144.575 371.443 143.325 371.188 141.586 371.188C139.867 371.188 138.513 371.458 137.523 372C136.534 372.542 136.039 373.604 136.039 375.188V383.906C136.039 384.958 136.257 385.766 136.695 386.328C137.143 386.88 137.778 387.26 138.601 387.469C139.435 387.667 140.429 387.766 141.586 387.766C142.763 387.766 143.742 387.667 144.523 387.469C145.304 387.26 145.888 386.88 146.273 386.328C146.669 385.766 146.867 384.958 146.867 383.906V382.219H142.211V379.172H151.054V391H148.601L147.867 388.344C147.804 388.531 147.674 388.792 147.476 389.125C147.278 389.458 146.955 389.802 146.507 390.156C146.06 390.5 145.44 390.792 144.648 391.031C143.856 391.281 142.836 391.406 141.586 391.406ZM155.228 374.219H159.478V376.219C159.728 375.781 160.165 375.396 160.79 375.062C161.425 374.719 162.149 374.453 162.962 374.266C163.774 374.068 164.587 373.969 165.399 373.969L165.306 377.578C164.764 377.609 164.175 377.677 163.54 377.781C162.905 377.885 162.29 378.026 161.696 378.203C161.113 378.38 160.618 378.599 160.212 378.859C159.806 379.12 159.561 379.417 159.478 379.75V391H155.228V374.219ZM166.385 385.75V379.203C166.385 377.495 167.031 376.177 168.323 375.25C169.625 374.323 171.364 373.859 173.541 373.859C176.125 373.859 177.958 374.354 179.041 375.344C180.135 376.333 180.682 377.672 180.682 379.359V383.422H170.635V386.156C170.635 387.146 170.89 387.771 171.401 388.031C171.911 388.281 172.671 388.406 173.682 388.406C174.89 388.406 175.698 388.24 176.104 387.906C176.52 387.562 176.729 386.875 176.729 385.844H180.666C180.666 387.917 180.083 389.354 178.916 390.156C177.75 390.958 175.979 391.359 173.604 391.359C172.239 391.359 171.01 391.193 169.916 390.859C168.823 390.516 167.958 389.938 167.323 389.125C166.698 388.312 166.385 387.188 166.385 385.75ZM176.666 380.828V378.859C176.666 378.234 176.531 377.781 176.26 377.5C176 377.208 175.64 377.026 175.182 376.953C174.734 376.87 174.224 376.828 173.651 376.828C172.796 376.828 172.078 376.958 171.494 377.219C170.921 377.469 170.635 378.042 170.635 378.938V380.828H176.666ZM183.074 385.75V379.203C183.074 377.495 183.72 376.177 185.011 375.25C186.313 374.323 188.053 373.859 190.23 373.859C192.813 373.859 194.647 374.354 195.73 375.344C196.824 376.333 197.371 377.672 197.371 379.359V383.422H187.324V386.156C187.324 387.146 187.579 387.771 188.089 388.031C188.6 388.281 189.36 388.406 190.371 388.406C191.579 388.406 192.386 388.24 192.792 387.906C193.209 387.562 193.417 386.875 193.417 385.844H197.355C197.355 387.917 196.772 389.354 195.605 390.156C194.438 390.958 192.667 391.359 190.292 391.359C188.928 391.359 187.699 391.193 186.605 390.859C185.511 390.516 184.647 389.938 184.011 389.125C183.386 388.312 183.074 387.188 183.074 385.75ZM193.355 380.828V378.859C193.355 378.234 193.22 377.781 192.949 377.5C192.688 377.208 192.329 377.026 191.871 376.953C191.423 376.87 190.912 376.828 190.339 376.828C189.485 376.828 188.766 376.958 188.183 377.219C187.61 377.469 187.324 378.042 187.324 378.938V380.828H193.355ZM200.325 374.219H204.575V375.703C205.221 375.151 205.934 374.703 206.716 374.359C207.497 374.016 208.497 373.844 209.716 373.844C210.976 373.844 211.997 374.078 212.778 374.547C213.559 375.005 214.132 375.62 214.497 376.391C214.861 377.161 215.044 378.021 215.044 378.969V391H210.794V379.203C210.794 378.609 210.637 378.156 210.325 377.844C210.023 377.531 209.643 377.318 209.184 377.203C208.736 377.089 208.289 377.031 207.841 377.031C207.33 377.031 206.825 377.125 206.325 377.312C205.825 377.5 205.408 377.776 205.075 378.141C204.742 378.505 204.575 378.964 204.575 379.516V391H200.325V374.219Z" fill="black"/>
</svg>
